<?xml version="1.0" encoding="utf-8"?>
<!-- Generator: Adobe Illustrator 24.0.2, SVG Export Plug-In . SVG Version: 6.00 Build 0)  -->
<svg version="1.1" id="Calque_1" xmlns="http://www.w3.org/2000/svg" xmlns:xlink="http://www.w3.org/1999/xlink" x="0px" y="0px"
	 viewBox="0 0 4.7 4.7" style="enable-background:new 0 0 4.7 4.7;" xml:space="preserve">
<style type="text/css">
	.st0{fill:#FFFFFF;}
</style>
<path class="st0" d="M3.1,2.6C3.1,2.6,3.1,2.6,3.1,2.6c0.4-0.7,0.3-1.6-0.2-2.1c-0.7-0.7-1.7-0.7-2.4,0c-0.7,0.7-0.7,1.7,0,2.4
	C1.1,3.5,2,3.5,2.6,3.1c0,0,0,0,0,0l1.5,1.5c0.1,0.1,0.3,0.1,0.4,0l0.1-0.1c0.1-0.1,0.1-0.3,0-0.4L3.1,2.6z M2.6,2.6
	c-0.5,0.5-1.3,0.5-1.8,0c-0.5-0.5-0.5-1.3,0-1.8c0.5-0.5,1.3-0.5,1.8,0C3.1,1.3,3.1,2.1,2.6,2.6z"/>
<text transform="matrix(1 0 0 1 -2.6117 22.3552)" style="font-family:'Arial-BoldMT'; font-size:5px;">Created by Verry</text>
<text transform="matrix(1 0 0 1 -2.6117 27.3552)" style="font-family:'Arial-BoldMT'; font-size:5px;">from the Noun Project</text>
</svg>
